<svg width="69" height="115" viewBox="0 0 69 115" fill="none" xmlns="http://www.w3.org/2000/svg">
<path d="M0 21.408C0 12.816 3.792 4.08 6.72 0H16.272C12.576 5.76 9.6 14.208 9.6 21.408C9.6 28.656 12.528 37.44 16.272 43.2H6.72C3.792 39.168 0 30 0 21.408Z" fill="#32B655"/>
<path d="M40.7621 17.376C40.7621 9.456 36.8261 8.112 31.3061 8.112H29.1941V26.688H31.3061C36.8261 26.688 40.7621 25.296 40.7621 17.376ZM19.1621 0H31.1621C42.3461 0 51.2261 4.176 51.2261 17.376C51.2261 30.624 42.3461 34.8 31.1621 34.8H19.1621V0Z" fill="#32B655"/>
<path d="M68.2616 21.408C68.2616 30 64.4696 39.168 61.5416 43.2H51.9896C55.6856 37.44 58.6616 28.704 58.6616 21.408C58.6616 14.208 55.6856 5.76 51.9896 0H61.5416C64.4696 4.08 68.2616 12.816 68.2616 21.408Z" fill="#32B655"/>
<path d="M17.0981 57.28C17.0981 46 23.8181 39.184 34.6661 39.184C43.5941 39.184 50.3621 44.32 51.7541 53.104H41.8661C41.1461 49.696 38.6501 47.584 35.0021 47.584C30.6341 47.584 27.5621 50.752 27.5621 57.28C27.5621 63.856 30.6341 67.024 35.0021 67.024C38.6501 67.024 41.2901 64.768 42.0101 61.456H51.8501C50.4581 70.288 43.6421 75.424 34.6661 75.424C23.8181 75.424 17.0981 68.608 17.0981 57.28Z" fill="#32B655"/>
<path d="M40.7621 97.376C40.7621 89.456 36.8261 88.112 31.3061 88.112H29.1941V106.688H31.3061C36.8261 106.688 40.7621 105.296 40.7621 97.376ZM19.1621 80H31.1621C42.3461 80 51.2261 84.176 51.2261 97.376C51.2261 110.624 42.3461 114.8 31.1621 114.8H19.1621V80Z" fill="#32B655"/>
</svg>
